<?xml version="1.0" encoding="utf-8"?>
<!-- Generator: Adobe Illustrator 27.6.1, SVG Export Plug-In . SVG Version: 6.00 Build 0)  -->
<svg version="1.1" id="Capa_1" xmlns="http://www.w3.org/2000/svg" xmlns:xlink="http://www.w3.org/1999/xlink" x="0px" y="0px"
	 viewBox="0 0 41 43" style="enable-background:new 0 0 41 43;" xml:space="preserve">
<g id="Icon_feather-search" transform="translate(-3 -3)">
	<g id="Trazado_17">
		<path d="M22,36.5c-7.4,0-13.5-6.1-13.5-13.5S14.6,9.5,22,9.5S35.5,15.6,35.5,23S29.4,36.5,22,36.5z M22,12.5
			c-5.8,0-10.5,4.7-10.5,10.5S16.2,33.5,22,33.5S32.5,28.8,32.5,23S27.8,12.5,22,12.5z"/>
	</g>
	<g id="Trazado_18">
		<path d="M37,39.5c-0.4,0-0.8-0.1-1.1-0.4l-6.5-6.5c-0.6-0.6-0.6-1.5,0-2.1c0.6-0.6,1.5-0.6,2.1,0l6.5,6.5c0.6,0.6,0.6,1.5,0,2.1
			C37.8,39.4,37.4,39.5,37,39.5z"/>
	</g>
</g>
</svg>
